{
  "accessors": [
    {
      "bufferView": 1,
      "componentType": 5126,
      "count": 65532,
      "max": [
        1.1382606029510498,
        1.1382606029510498,
        1.1382606029510498
      ],
      "min": [
        -1.1382606029510498,
        -1.1382606029510498,
        -1.1382604837417603
      ],
      "type": "VEC3"
    },
    {
      "bufferView": 1,
      "byteOffset": 786384,
      "componentType": 5126,
      "count": 65532,
      "max": [
        1,
        1,
        1
      ],
      "min": [
        -1,
        -1,
        -1
      ],
      "type": "VEC3"
    },
    {
      "bufferView": 0,
      "componentType": 5125,
      "count": 98298,
      "max": [
        65531
      ],
      "min": [
        0
      ],
      "type": "SCALAR"
    },
    {
      "bufferView": 1,
      "byteOffset": 1572768,
      "componentType": 5126,
      "count": 65532,
      "max": [
        1.1335824728012085,
        1.1382604837417603,
        1.1382604837417603
      ],
      "min": [
        -1.1382604837417603,
        -1.1382604837417603,
        -1.091087818145752
      ],
      "type": "VEC3"
    },
    {
      "bufferView": 1,
      "byteOffset": 2359152,
      "componentType": 5126,
      "count": 65532,
      "max": [
        1,
        1,
        1
      ],
      "min": [
        -1,
        -1,
        -1
      ],
      "type": "VEC3"
    },
    {
      "bufferView": 0,
      "byteOffset": 393192,
      "componentType": 5125,
      "count": 98298,
      "max": [
        65531
      ],
      "min": [
        0
      ],
      "type": "SCALAR"
    },
    {
      "bufferView": 1,
      "byteOffset": 3145536,
      "componentType": 5126,
      "count": 65532,
      "max": [
        1.1351772546768188,
        1.1351772546768188,
        1.1351773738861084
      ],
      "min": [
        -1.1351772546768188,
        -1.1351772546768188,
        -1.1351773738861084
      ],
      "type": "VEC3"
    },
    {
      "bufferView": 1,
      "byteOffset": 3931920,
      "componentType": 5126,
      "count": 65532,
      "max": [
        0.99574095010757446,
        0.99574118852615356,
        0.99574130773544312
      ],
      "min": [
        -0.99574095010757446,
        -0.99574118852615356,
        -0.99574130773544312
      ],
      "type": "VEC3"
    },
    {
      "bufferView": 0,
      "byteOffset": 786384,
      "componentType": 5125,
      "count": 98298,
      "max": [
        65531
      ],
      "min": [
        0
      ],
      "type": "SCALAR"
    },
    {
      "bufferView": 1,
      "byteOffset": 4718304,
      "componentType": 5126,
      "count": 65532,
      "max": [
        0.95853954553604126,
        1.1114318370819092,
        1.0904772281646729
      ],
      "min": [
        -0.95853954553604126,
        -0.95853954553604126,
        -0.95853954553604126
      ],
      "type": "VEC3"
    },
    {
      "bufferView": 1,
      "byteOffset": 5504688,
      "componentType": 5126,
      "count": 65532,
      "max": [
        0.9896470308303833,
        0.98964542150497437,
        0.99064511060714722
      ],
      "min": [
        -0.98964571952819824,
        -0.98964542150497437,
        -0.98964875936508179
      ],
      "type": "VEC3"
    },
    {
      "bufferView": 0,
      "byteOffset": 1179576,
      "componentType": 5125,
      "count": 98298,
      "max": [
        65531
      ],
      "min": [
        0
      ],
      "type": "SCALAR"
    },
    {
      "bufferView": 1,
      "byteOffset": 6291072,
      "componentType": 5126,
      "count": 65532,
      "max": [
        1.1351773738861084,
        1.1351773738861084,
        1.1351773738861084
      ],
      "min": [
        -1.1351773738861084,
        -1.1351773738861084,
        -1.1351773738861084
      ],
      "type": "VEC3"
    },
    {
      "bufferView": 1,
      "byteOffset": 7077456,
      "componentType": 5126,
      "count": 65532,
      "max": [
        0.99574071168899536,
        0.99574100971221924,
        0.99574100971221924
      ],
      "min": [
        -0.99574071168899536,
        -0.99574053287506104,
        -1
      ],
      "type": "VEC3"
    },
    {
      "bufferView": 0,
      "byteOffset": 1572768,
      "componentType": 5125,
      "count": 98298,
      "max": [
        65531
      ],
      "min": [
        0
      ],
      "type": "SCALAR"
    },
    {
      "bufferView": 1,
      "byteOffset": 7863840,
      "componentType": 5126,
      "count": 65532,
      "max": [
        1.1351773738861084,
        1.0910876989364624,
        1.1351773738861084
      ],
      "min": [
        -1.1195272207260132,
        -1.1351773738861084,
        -1.1351773738861084
      ],
      "type": "VEC3"
    },
    {
      "bufferView": 1,
      "byteOffset": 8650224,
      "componentType": 5126,
      "count": 65532,
      "max": [
        0.99574053287506104,
        0.97981470823287964,
        0.99574100971221924
      ],
      "min": [
        -0.99574053287506104,
        -0.99574100971221924,
        -1
      ],
      "type": "VEC3"
    },
    {
      "bufferView": 0,
      "byteOffset": 1965960,
      "componentType": 5125,
      "count": 98298,
      "max": [
        65531
      ],
      "min": [
        0
      ],
      "type": "SCALAR"
    },
    {
      "bufferView": 1,
      "byteOffset": 9436608,
      "componentType": 5126,
      "count": 65532,
      "max": [
        1.1382604837417603,
        1.1382606029510498,
        1.1382604837417603
      ],
      "min": [
        -1.1382606029510498,
        -1.1382604837417603,
        -1.1382604837417603
      ],
      "type": "VEC3"
    },
    {
      "bufferView": 1,
      "byteOffset": 10222992,
      "componentType": 5126,
      "count": 65532,
      "max": [
        1,
        1,
        1
      ],
      "min": [
        -1,
        -1,
        -1
      ],
      "type": "VEC3"
    },
    {
      "bufferView": 0,
      "byteOffset": 2359152,
      "componentType": 5125,
      "count": 98298,
      "max": [
        65531
      ],
      "min": [
        0
      ],
      "type": "SCALAR"
    },
    {
      "bufferView": 1,
      "byteOffset": 11009376,
      "componentType": 5126,
      "count": 65532,
      "max": [
        1.1382606029510498,
        1.1335824728012085,
        1.1382602453231812
      ],
      "min": [
        -1.1335824728012085,
        -1.1382606029510498,
        -1.1382604837417603
      ],
      "type": "VEC3"
    },
    {
      "bufferView": 1,
      "byteOffset": 11795760,
      "componentType": 5126,
      "count": 65532,
      "max": [
        1,
        1,
        1
      ],
      "min": [
        -0.98000359535217285,
        -1,
        -1
      ],
      "type": "VEC3"
    },
    {
      "bufferView": 0,
      "byteOffset": 2752344,
      "componentType": 5125,
      "count": 98298,
      "max": [
        65531
      ],
      "min": [
        0
      ],
      "type": "SCALAR"
    },
    {
      "bufferView": 1,
      "byteOffset": 12582144,
      "componentType": 5126,
      "count": 65532,
      "max": [
        1.1351678371429443,
        1.1351678371429443,
        1.1351678371429443
      ],
      "min": [
        -1.1351678371429443,
        -1.1351678371429443,
        -1.1351678371429443
      ],
      "type": "VEC3"
    },
    {
      "bufferView": 1,
      "byteOffset": 13368528,
      "componentType": 5126,
      "count": 65532,
      "max": [
        0.98505169153213501,
        0.98505532741546631,
        0.98505526781082153
      ],
      "min": [
        -0.9850534200668335,
        -0.98505181074142456,
        -0.98505526781082153
      ],
      "type": "VEC3"
    },
    {
      "bufferView": 0,
      "byteOffset": 3145536,
      "componentType": 5125,
      "count": 98298,
      "max": [
        65531
      ],
      "min": [
        0
      ],
      "type": "SCALAR"
    },
    {
      "bufferView": 1,
      "byteOffset": 14154912,
      "componentType": 5126,
      "count": 65532,
      "max": [
        1.091041088104248,
        1.091041088104248,
        1.091041088104248
      ],
      "min": [
        -1.091041088104248,
        -1.091041088104248,
        -1.091041088104248
      ],
      "type": "VEC3"
    },
    {
      "bufferView": 1,
      "byteOffset": 14941296,
      "componentType": 5126,
      "count": 65532,
      "max": [
        1,
        1,
        0.72939831018447876
      ],
      "min": [
        -1,
        -1,
        -1
      ],
      "type": "VEC3"
    },
    {
      "bufferView": 0,
      "byteOffset": 3538728,
      "componentType": 5125,
      "count": 98298,
      "max": [
        65531
      ],
      "min": [
        0
      ],
      "type": "SCALAR"
    },
    {
      "bufferView": 1,
      "byteOffset": 15727680,
      "componentType": 5126,
      "count": 65532,
      "max": [
        1.1382604837417603,
        1.1382604837417603,
        1.1382604837417603
      ],
      "min": [
        -1.1382604837417603,
        -1.1382604837417603,
        -1.1382604837417603
      ],
      "type": "VEC3"
    },
    {
      "bufferView": 1,
      "byteOffset": 16514064,
      "componentType": 5126,
      "count": 65532,
      "max": [
        1,
        1,
        1
      ],
      "min": [
        -1,
        -1,
        -1
      ],
      "type": "VEC3"
    },
    {
      "bufferView": 0,
      "byteOffset": 3931920,
      "componentType": 5125,
      "count": 98298,
      "max": [
        65531
      ],
      "min": [
        0
      ],
      "type": "SCALAR"
    },
    {
      "bufferView": 1,
      "byteOffset": 17300448,
      "componentType": 5126,
      "count": 16428,
      "max": [
        1.1382604837417603,
        0.91388869285583496,
        1.1382604837417603
      ],
      "min": [
        -0.91388869285583496,
        -0.92396247386932373,
        -0.91388869285583496
      ],
      "type": "VEC3"
    },
    {
      "bufferView": 1,
      "byteOffset": 17497584,
      "componentType": 5126,
      "count": 16428,
      "max": [
        1,
        1,
        1
      ],
      "min": [
        -0.12340541929006577,
        -1,
        -1
      ],
      "type": "VEC3"
    },
    {
      "bufferView": 0,
      "byteOffset": 4325112,
      "componentType": 5125,
      "count": 24642,
      "max": [
        16427
      ],
      "min": [
        0
      ],
      "type": "SCALAR"
    }
  ],
  "asset": {
    "extras": {
      "author": "johnhanacek (https://sketchfab.com/johnhanacek)",
      "license": "CC-BY-4.0 (http://creativecommons.org/licenses/by/4.0/)",
      "source": "https://sketchfab.com/3d-models/merkaba-lightvehicle-2dcffb51a2364223a0334c54a986a772",
      "title": "Merkaba - LightVehicle"
    },
    "generator": "Sketchfab-6.18.0",
    "version": "2.0"
  },
  "bufferViews": [
    {
      "buffer": 0,
      "byteLength": 4423680,
      "byteOffset": 0,
      "name": "floatBufferViews",
      "target": 34963
    },
    {
      "buffer": 0,
      "byteLength": 17694720,
      "byteOffset": 4423680,
      "byteStride": 12,
      "name": "floatBufferViews",
      "target": 34962
    }
  ],
  "buffers": [
    {
      "byteLength": 22118400,
      "uri": "scene.bin"
    }
  ],
  "materials": [
    {
      "doubleSided": true,
      "emissiveFactor": [
        0,
        0,
        0
      ],
      "name": "Material.002",
      "pbrMetallicRoughness": {
        "baseColorFactor": [
          1,
          0.72342873132374819,
          0.012518225358363446,
          1
        ],
        "metallicFactor": 1,
        "roughnessFactor": 0.14195884146341464
      }
    }
  ],
  "meshes": [
    {
      "name": "Solid_Material.002_0",
      "primitives": [
        {
          "attributes": {
            "NORMAL": 1,
            "POSITION": 0
          },
          "indices": 2,
          "material": 0,
          "mode": 4
        }
      ]
    },
    {
      "name": "Solid_Material.002_0",
      "primitives": [
        {
          "attributes": {
            "NORMAL": 4,
            "POSITION": 3
          },
          "indices": 5,
          "material": 0,
          "mode": 4
        }
      ]
    },
    {
      "name": "Solid_Material.002_0",
      "primitives": [
        {
          "attributes": {
            "NORMAL": 7,
            "POSITION": 6
          },
          "indices": 8,
          "material": 0,
          "mode": 4
        }
      ]
    },
    {
      "name": "Solid_Material.002_0",
      "primitives": [
        {
          "attributes": {
            "NORMAL": 10,
            "POSITION": 9
          },
          "indices": 11,
          "material": 0,
          "mode": 4
        }
      ]
    },
    {
      "name": "Solid_Material.002_0",
      "primitives": [
        {
          "attributes": {
            "NORMAL": 13,
            "POSITION": 12
          },
          "indices": 14,
          "material": 0,
          "mode": 4
        }
      ]
    },
    {
      "name": "Solid_Material.002_0",
      "primitives": [
        {
          "attributes": {
            "NORMAL": 16,
            "POSITION": 15
          },
          "indices": 17,
          "material": 0,
          "mode": 4
        }
      ]
    },
    {
      "name": "Solid_Material.002_0",
      "primitives": [
        {
          "attributes": {
            "NORMAL": 19,
            "POSITION": 18
          },
          "indices": 20,
          "material": 0,
          "mode": 4
        }
      ]
    },
    {
      "name": "Solid_Material.002_0",
      "primitives": [
        {
          "attributes": {
            "NORMAL": 22,
            "POSITION": 21
          },
          "indices": 23,
          "material": 0,
          "mode": 4
        }
      ]
    },
    {
      "name": "Solid_Material.002_0",
      "primitives": [
        {
          "attributes": {
            "NORMAL": 25,
            "POSITION": 24
          },
          "indices": 26,
          "material": 0,
          "mode": 4
        }
      ]
    },
    {
      "name": "Solid_Material.002_0",
      "primitives": [
        {
          "attributes": {
            "NORMAL": 28,
            "POSITION": 27
          },
          "indices": 29,
          "material": 0,
          "mode": 4
        }
      ]
    },
    {
      "name": "Solid_Material.002_0",
      "primitives": [
        {
          "attributes": {
            "NORMAL": 31,
            "POSITION": 30
          },
          "indices": 32,
          "material": 0,
          "mode": 4
        }
      ]
    },
    {
      "name": "Solid_Material.002_0",
      "primitives": [
        {
          "attributes": {
            "NORMAL": 34,
            "POSITION": 33
          },
          "indices": 35,
          "material": 0,
          "mode": 4
        }
      ]
    }
  ],
  "nodes": [
    {
      "children": [
        1
      ],
      "name": "RootNode (gltf orientation matrix)",
      "rotation": [
        -0.70710678118654746,
        -0,
        -0,
        0.70710678118654757
      ]
    },
    {
      "children": [
        2
      ],
      "name": "RootNode (model correction matrix)"
    },
    {
      "children": [
        3
      ],
      "matrix": [
        1,
        0,
        0,
        0,
        0,
        0,
        1,
        0,
        0,
        -1,
        0,
        0,
        0,
        0,
        0,
        1
      ],
      "name": "f9d7eea77d6148f9a989a7460b833c8e.fbx"
    },
    {
      "children": [
        4
      ],
      "name": "RootNode"
    },
    {
      "children": [
        5,
        6,
        7,
        8,
        9,
        10,
        11,
        12,
        13,
        14,
        15,
        16
      ],
      "matrix": [
        277.96572875976562,
        0,
        0,
        0,
        0,
        -4.5286365377186548e-05,
        -277.96572875976193,
        0,
        0,
        277.96572875976193,
        -4.5286365377186548e-05,
        0,
        42.470001220703125,
        69.551849365234375,
        -22.948814392089844,
        1
      ],
      "name": "Solid"
    },
    {
      "mesh": 0,
      "name": "Solid_Material.002_0"
    },
    {
      "mesh": 1,
      "name": "Solid_Material.002_0"
    },
    {
      "mesh": 2,
      "name": "Solid_Material.002_0"
    },
    {
      "mesh": 3,
      "name": "Solid_Material.002_0"
    },
    {
      "mesh": 4,
      "name": "Solid_Material.002_0"
    },
    {
      "mesh": 5,
      "name": "Solid_Material.002_0"
    },
    {
      "mesh": 6,
      "name": "Solid_Material.002_0"
    },
    {
      "mesh": 7,
      "name": "Solid_Material.002_0"
    },
    {
      "mesh": 8,
      "name": "Solid_Material.002_0"
    },
    {
      "mesh": 9,
      "name": "Solid_Material.002_0"
    },
    {
      "mesh": 10,
      "name": "Solid_Material.002_0"
    },
    {
      "mesh": 11,
      "name": "Solid_Material.002_0"
    }
  ],
  "scene": 0,
  "scenes": [
    {
      "name": "OSG_Scene",
      "nodes": [
        0
      ]
    }
  ]
}

